# xmcd
# 
# Track frame offsets:
#	182
#	11842
#	22760
#	36342
#	48805
#	66022
#	81957
#	97347
#	107667
#	119547
#	139870
#	160300
#	174232
#	192285
#	213537
#	228977
#	239462
#	250310
#	262917
#	275552
#
# Disc length: 3989 seconds
#
# Revision: 1
# Processed by: cddbd v1.4PL0 Copyright (c) Steve Scherf et al.
# Submitted via: Audio-CD-Archiv 2.10.438
#
DISCID=190f9314
DTITLE=Sylvie and the badboys - Wonderful tonight
DYEAR=1900
DGENRE=country
TTITLE0=Bad moon rising
TTITLE1=Hey good looking
TTITLE2=Truck drivin' man
TTITLE3=Walking shoes
TTITLE4=Baby ride easy
TTITLE5=Help me take it through the night
TTITLE6=Achy breaky heart
TTITLE7=On the road again
TTITLE8=Honky tonk blues
TTITLE9=Ready for those times
TTITLE10=Slow Running
TTITLE11=It's so easy
TTITLE12=End of the line
TTITLE13=Country roads
TTITLE14=Country honk
TTITLE15=Act naturally
TTITLE16=Hotel Ritz
TTITLE17=It hurts to be in love
TTITLE18=C' est la vie
TTITLE19=Wonderful tonight
EXTD=
EXTT0=
EXTT1=
EXTT2=
EXTT3=
EXTT4=
EXTT5=
EXTT6=
EXTT7=
EXTT8=
EXTT9=
EXTT10=
EXTT11=
EXTT12=
EXTT13=
EXTT14=
EXTT15=
EXTT16=
EXTT17=
EXTT18=
EXTT19=
PLAYORDER=
